# xmcd
#
# Track frame offsets:
#	150
#	14704
#	28222
#	44631
#	57662
#	71477
#	83664
#	96657
#	112322
#	127049
#	138982
#	148799
#	161219
#	173327
#	187127
#	198827
#	209785
#	223063
#	233439
#	248554
#
# Disc length: 3444 seconds
#
# Revision: 1
# Processed by: cddbd v1.5.1PL2 Copyright (c) Steve Scherf et al.
# Submitted via: audiograbber 1.83.01
#
DISCID=3f0d7214
DTITLE=Renée Martel - Renée Martel - Volume 2 Cow girl dorée
DYEAR=1900
DGENRE=Country
TTITLE0=Un amour qui ne veut pas mourir
TTITLE1=Si on pouvait recommencer
TTITLE2=Tu n'es plus là
TTITLE3=Partir au soleil
TTITLE4=Pour ton amour
TTITLE5=Le bateau du bonheur
TTITLE6=Rien ne va aujourd'hui
TTITLE7=Darling
TTITLE8=Cow girl dorée
TTITLE9=J'ai besoin de ton amour
TTITLE10=Mon roman d'amour
TTITLE11=Nos jeux d'enfants
TTITLE12=La ronde des saisons
TTITLE13=La vie, l'amour et moi
TTITLE14=Prends ma main
TTITLE15=Rien pour faire une chanson
TTITLE16=L'enfer de la nuit
TTITLE17=Le train de nuit
TTITLE18=Rose Garden
TTITLE19=Goodbye
EXTD=
EXTT0=
EXTT1=
EXTT2=
EXTT3=
EXTT4=
EXTT5=
EXTT6=
EXTT7=
EXTT8=
EXTT9=
EXTT10=
EXTT11=
EXTT12=
EXTT13=
EXTT14=
EXTT15=
EXTT16=
EXTT17=
EXTT18=
EXTT19=
PLAYORDER=
